<svg xmlns="http://www.w3.org/2000/svg" viewBox="0 0 683.3535 744.3887">
  <defs>
    <style>
      .cls-1{fill:#00843d}
    </style>
  </defs>
  <g id="Layer_2" data-name="Layer 2">
    <path class="cls-1" d="M341.67672 100.53567a57.52551 57.52551 0 0 1 28.7821 7.7124L554.03609 214.2344a57.564 57.564 0 0 1 28.78333 49.85352v216.21289a57.564 57.564 0 0 1-28.78333 49.85352L370.45882 636.14065a57.56275 57.56275 0 0 1-57.56433 0L129.31832 530.15432a57.56558 57.56558 0 0 1-28.78332-49.85351V264.08792a57.56558 57.56558 0 0 1 28.78333-49.85352l183.57616-105.98633a57.52629 57.52629 0 0 1 28.78223-7.7124m0-40A97.69384 97.69384 0 0 0 292.894 73.60745L109.31856 179.59329A97.835 97.835 0 0 0 60.535 264.08792v216.21289a97.83542 97.83542 0 0 0 48.78442 84.49512l183.57531 105.98583a97.56282 97.56282 0 0 0 97.56445-.00024l183.57655-105.98608a97.83328 97.83328 0 0 0 48.78369-84.49463V264.08792a97.83448 97.83448 0 0 0-48.785-84.49561L390.45858 73.607a97.69121 97.69121 0 0 0-48.78186-13.07129z"/>
    <path class="cls-1" d="M319.1386 406.1377a11.99879 11.99879 0 0 1-10.3916-6l-22.0937-38.2676a12 12 0 0 1 0-12l22.0937-38.2675a11.99879 11.99879 0 0 1 10.3916-6h45.0723a11.99879 11.99879 0 0 1 10.3916 6l22.0937 38.2675a12 12 0 0 1 0 12l-22.0937 38.2676a11.99879 11.99879 0 0 1-10.3916 6zM258.9414 345.8721a11.99879 11.99879 0 0 0 10.3916-6l22.0937-38.2676a12 12 0 0 0 0-12l-27.5537-47.7246-53.7363 29.335a12.01335 12.01335 0 0 0-6.25 10.7988 337.29637 337.29637 0 0 0 7.4707 63.8584zM424.4101 345.8721a11.99879 11.99879 0 0 1-10.3916-6l-22.0937-38.2676a12 12 0 0 1 0-12l27.5537-47.7246 53.7353 29.335a12.01083 12.01083 0 0 1 6.2491 10.7988 337.304 337.304 0 0 1-7.4688 63.8584zM347.4257 202.5459a12.00225 12.00225 0 0 0-11.5 0l-54.4931 29.7481 27.3154 47.3115a11.9992 11.9992 0 0 0 10.3926 6h45.0703a11.9992 11.9992 0 0 0 10.3926-6l27.3154-47.3115zM216.3203 365.8721a335.12284 335.12284 0 0 0 48.5879 102.2012l26.5205-45.9336a12.00045 12.00045 0 0 0 0-12l-22.0938-38.2676a11.99867 11.99867 0 0 0-10.3916-6zM467.0332 365.8721a335.12982 335.12982 0 0 1-48.5889 102.2012l-26.5195-45.9336a12 12 0 0 1 0-12l22.0937-38.2676a11.99879 11.99879 0 0 1 10.3916-6zM319.1406 426.1377a11.99867 11.99867 0 0 0-10.3916 6l-30.7725 53.2979a338.63612 338.63612 0 0 0 56.3457 55.3554 11.9987 11.9987 0 0 0 14.7012.0079 338.65 338.65 0 0 0 56.3535-55.3633l-30.7724-53.2979a11.99879 11.99879 0 0 0-10.3916-6z"/>
  </g>
</svg>
